<svg width="185" height="160" viewBox="0 0 185 160" fill="none" xmlns="http://www.w3.org/2000/svg">
<g clip-path="url(#clip0_447_136)">
<path d="M90.195 117.167C94.5989 118.541 97.4598 121.927 96.585 124.73C95.7102 127.532 91.4315 128.69 87.0262 127.315C85.2589 126.789 83.6431 125.849 82.3139 124.571L63.7278 118.514L66.756 109.853L84.7571 116.744C86.5776 116.448 88.4422 116.594 90.195 117.167L90.195 117.167V117.167Z" fill="#FFB6B6"/>
<path d="M50.3785 53.6157H50.3785C45.9468 53.0908 41.8663 56.086 41.0407 60.4717C38.096 76.1146 31.8418 109.941 32.6654 110.765C33.7376 111.837 73.7686 123.632 73.7686 123.632L78.415 113.624L51.966 100.757L57.7666 63.3434C58.503 58.5937 55.1516 54.181 50.3785 53.6157V53.6157V53.6157Z" fill="#E6E6E6"/>
<path d="M98.6058 133.439C94.3087 135.117 89.9595 134.26 88.8918 131.525C87.8241 128.791 90.442 125.214 94.7408 123.535C96.4489 122.841 98.2982 122.566 100.134 122.734L118.431 115.852L121.477 124.507L103.117 130.372C101.879 131.74 100.333 132.791 98.6058 133.439H98.6058V133.439Z" fill="#A0616A"/>
<path d="M124.991 59.1529H124.991C129.378 58.3314 133.651 61.0457 134.769 65.366C138.758 80.7756 147.272 114.106 146.505 114.983C145.507 116.125 106.359 130.583 106.359 130.583L101.051 120.91L126.576 106.295L118.274 69.3551C117.22 64.6657 120.267 60.0377 124.991 59.1529L124.991 59.1529V59.1529Z" fill="#E6E6E6"/>
<path d="M47.2393 55.8627L49.4193 42.2379L34.7044 36.2429L32.5244 56.9527L47.2393 55.8627Z" fill="#FFB6B6"/>
<path d="M133.18 58.0072L131 44.3824L145.715 38.3874L147.895 59.0972L133.18 58.0072Z" fill="#A0616A"/>
<path d="M43.5205 46.6178C51.8079 46.6178 58.5262 39.8995 58.5262 31.6121C58.5262 23.3247 51.8079 16.6065 43.5205 16.6065C35.2331 16.6065 28.5149 23.3247 28.5149 31.6121C28.5149 39.8995 35.2331 46.6178 43.5205 46.6178Z" fill="#FFB6B6"/>
<path d="M42.323 11.4381C42.7572 11.6916 43.3388 11.3081 43.478 10.825C43.6173 10.3419 43.4551 9.82892 43.2943 9.35257L42.4846 6.95455C41.9104 5.25382 41.301 3.49366 40.0574 2.19919C38.1804 0.245386 35.1974 -0.251653 32.5121 0.108434C29.0636 0.570855 25.6612 2.43816 24.0578 5.52599C22.4543 8.61381 23.137 12.9224 26.0343 14.8489C21.905 19.5818 20.4656 24.8564 20.6929 31.1332C20.9201 37.4101 27.7604 43.1869 32.2211 47.6087C33.2173 47.0048 34.1229 44.1748 33.5751 43.1468C33.0273 42.1187 33.8122 40.9277 33.1338 39.9807C32.4553 39.0338 31.8877 40.5416 32.5736 39.6C33.0064 39.0059 31.3172 37.639 31.9605 37.2834C35.0722 35.5633 36.1072 31.6847 38.0615 28.7146C40.4188 25.1321 44.4533 22.706 48.7229 22.3035C51.0749 22.0817 53.5591 22.4833 55.4869 23.8488C57.4147 25.2142 58.6628 27.6542 58.2157 29.9739C59.3735 28.7984 59.9498 27.0756 59.7324 25.44C59.5151 23.8045 58.5088 22.292 57.0842 21.4597C57.9504 18.5951 57.2083 15.3 55.1977 13.0833C53.1872 10.8666 45.0313 11.2441 42.096 11.8275" fill="#2F2E41"/>
<path d="M41.8673 22.3904C37.9796 22.8101 35.1726 26.1777 32.8023 29.2876C31.4361 31.0801 30.0051 33.0597 30.0394 35.3132C30.0741 37.5916 31.5974 39.5458 32.3254 41.705C33.5154 45.2343 32.3556 49.4333 29.5229 51.8515C32.3219 52.3827 35.3477 50.284 35.8309 47.4763C36.3934 44.2079 33.9158 41.0533 34.2092 37.7498C34.4677 34.8393 36.7613 32.5994 38.7111 30.4233C40.661 28.2472 42.4922 25.3595 41.5952 22.5787" fill="#2F2E41"/>
<path d="M48.9391 53.5781L31.9505 48.9316L14.437 56.08L6.93115 115.412L49.8214 116.841V107.271C49.8214 107.271 57.3272 97.898 55.8976 84.3161L54.4679 70.7342L48.9391 53.5781H48.9391Z" fill="#E6E6E6"/>
<path d="M56.7912 77.7039L23.1938 75.9168L14.0797 101.83C14.0797 101.83 2.82095 117.377 1.03386 128.815C-0.753238 140.252 0.319018 156.336 0.319018 156.336H54.1064L49.8215 107.271C49.8215 107.271 59.8251 85.5671 58.6656 81.8142C57.5061 78.0613 56.7912 77.7039 56.7912 77.7039L56.7912 77.7039V77.7039Z" fill="#FEC65E"/>
<path d="M31.0571 49.1103H22.8364V79.491H31.0571V49.1103Z" fill="#FEC65E"/>
<path d="M56.4338 55.9013H48.2131V80.9206H56.4338V55.9013Z" fill="#FEC65E"/>
<path d="M130.766 56.4374L147.754 51.791L165.268 58.9394L172.774 118.271L129.884 119.701V110.13C129.884 110.13 125.496 100.346 129.705 87.3542C133.815 74.6658 125.237 73.5936 125.237 73.5936L130.766 56.4374V56.4374V56.4374Z" fill="#E6E6E6"/>
<path d="M122.914 80.5632L156.511 78.7761L165.625 104.689C165.625 104.689 171.165 122.381 172.952 133.819C174.74 145.256 179.386 159.195 179.386 159.195H125.599L123.986 112.016L122.914 80.5632L122.914 80.5632V80.5632Z" fill="#FEC65E"/>
<path d="M156.869 51.9697H148.648V82.3503H156.869V51.9697Z" fill="#FEC65E"/>
<path d="M131.492 58.7607H123.271V83.78H131.492V58.7607Z" fill="#FEC65E"/>
<path d="M149.793 43.1985C157.133 35.859 157.133 23.9592 149.793 16.6197C142.453 9.28018 130.554 9.28018 123.214 16.6197C115.875 23.9592 115.875 35.859 123.214 43.1985C130.554 50.538 142.453 50.538 149.793 43.1985Z" fill="#A0616A"/>
<path d="M154.99 40.1044C154.99 40.1044 145.897 29.1931 142.26 30.1024C138.623 31.0117 140.896 32.3756 140.896 32.3756L131.803 22.3736C131.803 22.3736 124.529 19.6458 117.71 28.2839C117.71 28.2839 113.618 21.0097 117.71 16.9179C121.801 12.8262 123.165 13.2808 124.075 11.0077C124.984 8.73448 131.349 6.91593 131.349 6.91593C131.349 6.91593 130.984 3.64398 132.985 5.27995C134.986 6.91593 139.983 6.91593 139.983 6.91593C139.983 6.91593 140.012 5.09738 142.045 6.91593C144.079 8.73448 146.352 7.8252 146.352 7.8252C146.352 7.8252 146.352 10.9719 147.943 10.9898C149.534 11.0077 152.262 8.73448 152.717 10.553C153.171 12.3716 156.354 13.2808 156.808 18.7365C157.263 24.1921 154.99 40.1044 154.99 40.1044V40.1044Z" fill="#2F2E41"/>
<path d="M85.2867 68.1555L99.8376 95.6634L97.843 96.7185L83.2921 69.2106C83.0808 68.8113 83.2335 68.3157 83.6328 68.1044L84.1805 67.8147C84.5798 67.6035 85.0754 67.7562 85.2867 68.1555V68.1555Z" fill="#FEC65E"/>
<path d="M109.529 106.059C105.827 105.105 101.954 106.795 100.096 110.136C97.7699 114.32 95.1125 117.753 96.0023 109.572C96.982 100.566 91.6986 93.2924 95.8507 91.096C100.003 88.8996 104.29 95.5747 111.039 101.618C117.293 107.22 113.686 107.131 109.529 106.059L109.529 106.059V106.059Z" fill="#FEC65E"/>
<path d="M88.101 73.7203C92.2975 71.8042 96.6878 72.4164 97.9068 75.0872C99.1257 77.7581 96.7119 81.4757 92.5137 83.3919C90.8472 84.1804 89.016 84.5583 87.1735 84.494L69.2902 92.3881L65.7646 83.917L83.7687 77.0342C84.9274 75.5995 86.413 74.4631 88.101 73.7203V73.7203V73.7203Z" fill="#FFB6B6"/>
<path d="M16.0351 52.9681L16.035 52.9681C12.3845 55.535 11.3448 60.489 13.657 64.3059C21.9044 77.9203 39.8233 107.285 40.9864 107.349C42.5005 107.432 80.1831 89.498 80.1831 89.498L76.964 78.9443L48.6801 87.0146L28.0293 55.2814C25.4077 51.2529 19.9668 50.2035 16.0351 52.9681V52.9681V52.9681Z" fill="#E6E6E6"/>
<path d="M89.8892 115.966L138.228 90.3958L144.162 101.614C149.281 111.29 145.58 123.302 135.903 128.421L122.63 135.442C112.954 140.561 100.942 136.86 95.8231 127.184L89.8892 115.966V115.966V115.966Z" fill="#BA2530"/>
<path d="M130.843 133.154C126.647 135.07 122.257 134.459 121.037 131.788C119.818 129.118 122.231 125.4 126.429 123.483C128.096 122.694 129.927 122.316 131.769 122.38L149.651 114.483L153.178 122.954L135.175 129.839C134.017 131.274 132.531 132.411 130.843 133.154H130.843V133.154Z" fill="#A0616A"/>
<path d="M167.213 57.5473H167.213C171.644 57.0224 175.725 60.0177 176.551 64.4033C179.495 80.0462 185.75 113.873 184.926 114.697C183.854 115.769 143.823 127.564 143.823 127.564L139.176 117.556L165.625 104.689L159.825 67.275C159.088 62.5253 162.44 58.1126 167.213 57.5473V57.5473V57.5473Z" fill="#E6E6E6"/>
</g>
<defs>
<clipPath id="clip0_447_136">
<rect width="185" height="159.195" fill="white"/>
</clipPath>
</defs>
</svg>
