<svg width="200" height="162" viewBox="0 0 200 162" fill="none" xmlns="http://www.w3.org/2000/svg">
<g clip-path="url(#clip0_447_70)">
<path d="M113.936 142.655C112.553 140.719 110.681 139.302 108.328 138.772C106.275 138.309 104.165 138.388 102.079 138.404L75.6995 138.608C73.4403 138.625 71.2742 140.582 71.3792 142.928C71.4833 145.254 73.2779 147.267 75.6995 147.248C83.4269 147.189 91.1541 147.129 98.8814 147.07C100.703 147.056 102.526 147.023 104.348 147.029C104.757 147.03 105.164 147.052 105.573 147.056C105.672 147.057 105.744 147.056 105.794 147.054C105.807 147.058 105.817 147.062 105.834 147.066C106.047 147.125 106.266 147.165 106.48 147.221C106.405 147.223 106.619 147.357 106.727 147.402C106.742 147.431 106.773 147.483 106.826 147.563C106.899 147.7 107.117 148.118 107.126 148.105C107.452 148.931 107.722 149.779 107.932 150.642C108.434 152.545 108.545 152.942 108.617 154.728C108.708 156.983 110.539 159.155 112.937 159.048C115.2 158.947 117.356 157.146 117.258 154.728C117.093 150.652 116.377 146.073 113.936 142.655Z" fill="#E6E6E6"/>
<path d="M77.2502 152.405C76.7547 149.402 76.2687 146.398 75.7636 143.397C75.2511 140.353 74.2043 137.565 71.8353 135.567C71.2023 135.033 70.546 134.535 69.8869 134.038C69.6551 133.863 69.4237 133.688 69.1947 133.51C69.181 133.499 69.1723 133.492 69.1604 133.483C69.1352 133.462 69.105 133.436 69.0644 133.401C68.077 132.566 67.1229 131.693 66.2141 130.765C65.4071 129.941 64.6353 129.082 63.8987 128.188C63.7147 127.964 63.533 127.739 63.3537 127.512C63.3228 127.473 63.1567 127.258 63.0473 127.118C62.9455 126.978 62.7594 126.724 62.7282 126.68C62.5187 126.384 62.3129 126.085 62.1109 125.783C60.7348 123.721 59.5433 121.542 58.5501 119.271C58.4516 119.046 58.3554 118.82 58.2616 118.592C58.2364 118.522 58.2038 118.433 58.1606 118.314C57.9605 117.764 57.7607 117.214 57.5777 116.657C57.1889 115.474 56.8546 114.274 56.5749 113.056C56.4366 112.454 56.3121 111.85 56.2014 111.243C56.1443 110.93 56.0909 110.617 56.0412 110.304C56.033 110.251 55.9845 109.913 55.9559 109.722C55.9348 109.53 55.8955 109.189 55.8902 109.137C55.8585 108.821 55.8305 108.504 55.8059 108.187C55.7507 107.475 55.7133 106.76 55.6939 106.045C55.6607 104.774 55.6834 103.503 55.7622 102.232C55.807 101.518 55.8708 100.806 55.9494 100.095C55.9542 100.051 55.9578 100.016 55.9613 99.9849C55.966 99.9532 55.9716 99.9171 55.9781 99.8722C56.0363 99.4794 56.0975 99.087 56.1659 98.6959C56.425 97.2109 56.7621 95.7405 57.1756 94.2909C57.3714 93.6053 57.5841 92.9252 57.8136 92.2507C57.9159 91.9513 58.0215 91.6531 58.1303 91.356C58.1232 91.3751 58.4495 90.5416 58.4539 90.5136C59.7486 87.4545 61.8663 84.6657 61.8692 81.1907C61.8712 78.8379 59.8807 76.584 57.5488 76.6928C56.3862 76.7365 55.286 77.2299 54.4801 78.069C53.6741 78.9081 53.2254 80.0272 53.2285 81.1907C53.2285 81.2435 53.2282 81.2886 53.2281 81.3323C53.2063 81.4056 53.1881 81.4667 53.1718 81.5207C52.9193 82.0694 52.61 82.5908 52.3328 83.1259C51.5739 84.5903 50.9261 86.1028 50.3108 87.6375C49.3035 90.1367 48.5324 92.7248 48.0077 95.3678C46.8672 101.159 46.7787 107.108 47.7464 112.93C49.4215 123.141 54.9456 132.914 62.6255 139.484C63.292 140.054 63.9747 140.605 64.6639 141.145C64.949 141.368 65.2366 141.588 65.5256 141.805C65.6622 141.908 66.2281 142.355 65.9792 142.139C66.5145 142.595 66.7398 142.825 66.8773 143.162C66.8972 143.239 66.9244 143.345 66.9612 143.489C67.0581 143.868 67.1501 144.247 67.2266 144.632C67.8951 147.994 68.3597 151.412 68.9181 154.796C69.3019 157.121 72.1643 158.635 74.2327 157.938C76.6402 157.127 77.6614 154.896 77.2502 152.405Z" fill="#E6E6E6"/>
<path d="M114.373 161.125C112.559 161.13 110.817 160.415 109.529 159.137C108.241 157.858 107.513 156.122 107.504 154.307V149.379C102.344 149.957 84.6753 149.823 79.6106 149.009V154.11C79.597 155.923 78.8673 157.657 77.5805 158.934C76.2937 160.212 74.5542 160.928 72.7412 160.928C70.9281 160.928 69.1886 160.212 67.9018 158.934C66.615 157.657 65.8853 155.923 65.8717 154.11V144.094C59.0119 140.284 53.2934 134.711 49.3061 127.952C45.3189 121.194 43.2074 113.493 43.1897 105.646C43.1897 92.1909 49.2876 79.639 59.92 71.2091C66.8331 65.7094 75.2324 62.4019 84.0392 61.7114C85.2346 61.6177 86.4373 61.5702 87.614 61.5702C91.7595 61.5702 110.463 62.2106 115.156 63.5607L125.856 52.9429C126.014 52.7847 126.215 52.6769 126.433 52.6333C126.652 52.5897 126.879 52.6123 127.085 52.6981C127.292 52.7806 127.47 52.924 127.595 53.1094C127.719 53.2948 127.785 53.5135 127.783 53.7368V55.425L129.866 53.3614C130.023 53.203 130.224 53.0951 130.443 53.0514C130.661 53.0077 130.888 53.0303 131.094 53.1162C131.302 53.1987 131.48 53.3421 131.604 53.5275C131.729 53.713 131.795 53.9318 131.793 54.1553V73.0204C137.162 77.861 141.254 83.9513 143.707 90.7516C146.16 97.552 146.897 104.852 145.854 112.006C144.81 119.159 142.019 125.945 137.726 131.761C133.433 137.578 127.771 142.245 121.243 145.351V154.307C121.234 156.122 120.506 157.858 119.218 159.137C117.93 160.415 116.188 161.13 114.373 161.125V161.125ZM108.044 148.766V154.307C108.058 155.977 108.731 157.574 109.916 158.749C111.102 159.925 112.704 160.585 114.373 160.585C116.043 160.585 117.645 159.925 118.831 158.749C120.016 157.574 120.689 155.977 120.703 154.307V145.01L120.857 144.936C128.182 141.46 134.4 136.022 138.822 129.226C144.456 120.553 146.799 110.15 145.427 99.8994C144.055 89.6487 139.059 80.2278 131.342 73.3418L131.253 73.2613V54.1553C131.255 54.0392 131.221 53.9253 131.156 53.8289C131.091 53.7326 130.999 53.6584 130.89 53.6164C130.783 53.5704 130.664 53.558 130.549 53.5808C130.434 53.6036 130.329 53.6605 130.247 53.7442L127.243 56.72V53.7368C127.245 53.6207 127.211 53.5068 127.146 53.4105C127.081 53.3141 126.989 53.2399 126.88 53.1979C126.773 53.152 126.653 53.1397 126.538 53.1627C126.424 53.1856 126.318 53.2428 126.236 53.3266L115.307 64.1717L115.151 64.1231C110.789 62.7577 91.791 62.1103 87.614 62.1103C86.4513 62.1103 85.2628 62.1572 84.0817 62.2499C75.3819 62.932 67.0846 66.1993 60.2556 71.6322C49.7532 79.9591 43.7297 92.3568 43.7297 105.646C43.7477 113.424 45.8478 121.055 49.812 127.747C53.7762 134.438 59.4598 139.947 66.2724 143.699L66.4117 143.776V154.11C66.4257 155.78 67.0986 157.376 68.2841 158.552C69.4696 159.727 71.0716 160.387 72.7411 160.387C74.4107 160.387 76.0127 159.727 77.1982 158.552C78.3837 157.376 79.0566 155.78 79.0706 154.11V148.362L79.3905 148.423C83.9419 149.279 103.107 149.414 107.739 148.806L108.044 148.766Z" fill="#2F2E41"/>
<path d="M77.7662 32.1646L47.8637 41.151C46.9126 41.438 46.1144 42.0907 45.6443 42.9659C45.1742 43.8411 45.0707 44.8671 45.3566 45.8185C45.6425 46.7699 46.2944 47.569 47.169 48.04C48.0437 48.5111 49.0695 48.6157 50.0213 48.3309L76.1892 40.4651L76.7374 40.3004C76.8484 37.4756 77.6147 34.7152 78.9759 32.2375C78.8051 32.1606 78.6225 32.1132 78.4359 32.0971C78.2104 32.0752 77.9828 32.0982 77.7662 32.1646Z" fill="#BA2530"/>
<path d="M49.5043 50.2468C49.1074 50.2458 48.7208 50.1201 48.3991 49.8875C48.0775 49.6549 47.8371 49.327 47.7119 48.9503L45.8421 43.3079C45.764 43.0723 45.7331 42.8236 45.7511 42.576C45.7691 42.3284 45.8357 42.0868 45.9472 41.865C46.0586 41.6432 46.2126 41.4455 46.4004 41.2832C46.5882 41.1209 46.8062 40.9972 47.0419 40.9191L71.3794 32.8535C71.615 32.7754 71.8637 32.7444 72.1113 32.7625C72.3589 32.7805 72.6004 32.847 72.8223 32.9584C73.0441 33.0698 73.2418 33.2238 73.4041 33.4116C73.5664 33.5994 73.6902 33.8173 73.7683 34.0529L75.6381 39.6953C75.7937 40.1594 75.7625 40.6658 75.5512 41.1073C75.3398 41.5488 74.9649 41.8907 74.5059 42.0605C74.4834 42.069 74.4607 42.0769 74.4378 42.0844L50.1008 50.1498C49.9084 50.2139 49.707 50.2466 49.5043 50.2468Z" fill="#FEC65E"/>
<path d="M95.0828 22.144C90.1708 22.1459 85.4523 24.0591 81.9259 27.4786C78.3996 30.898 76.3422 35.5555 76.1892 40.4651C76.1838 40.6568 76.1812 40.8513 76.1812 41.0457C76.1812 44.7841 77.2897 48.4385 79.3666 51.5469C81.4436 54.6552 84.3956 57.0779 87.8495 58.5085C91.3033 59.9392 95.1038 60.3135 98.7704 59.5842C102.437 58.8548 105.805 57.0546 108.448 54.4112C111.092 51.7677 112.892 48.3998 113.621 44.7332C114.351 41.0666 113.976 37.2662 112.546 33.8123C111.115 30.3585 108.692 27.4065 105.584 25.3295C102.476 23.2526 98.8212 22.144 95.0828 22.144V22.144ZM95.0828 59.4073C90.2146 59.4022 85.5472 57.4661 82.1048 54.0237C78.6624 50.5813 76.7263 45.9139 76.7212 41.0457C76.7212 40.7946 76.7266 40.5461 76.7374 40.3004C76.8836 36.7036 78.0839 33.2292 80.1889 30.3091C82.294 27.389 85.2109 25.1521 88.5771 23.8765C91.9433 22.601 95.6101 22.343 99.1217 23.1347C102.633 23.9265 105.835 25.733 108.328 28.3296C110.821 30.9262 112.496 34.1984 113.144 37.7393C113.793 41.2801 113.386 44.9335 111.974 48.245C110.563 51.5565 108.209 54.3802 105.206 56.3648C102.203 58.3494 98.6826 59.4074 95.0828 59.4073V59.4073Z" fill="#FEC65E"/>
<path d="M111.014 41.0457C111.014 45.271 109.336 49.3232 106.348 52.3109C103.36 55.2986 99.308 56.9771 95.0828 56.9771C90.8575 56.9771 86.8053 55.2986 83.8176 52.3109C80.8299 49.3232 79.1514 45.271 79.1514 41.0457C79.1514 40.5407 79.1756 40.0439 79.2215 39.5524C79.6054 35.4746 81.5452 31.7013 84.6379 29.016C87.7307 26.3307 91.7389 24.9397 95.8302 25.1319C99.9216 25.3241 103.782 27.0846 106.609 30.048C109.437 33.0113 111.014 36.9498 111.014 41.0457V41.0457Z" fill="#E6E6E6"/>
<path d="M99.8273 42.1042C99.4411 41.5964 98.9331 41.1943 98.3503 40.935C97.6315 40.632 96.8891 40.3882 96.1307 40.2059V35.8693C97.2965 36.0451 98.3899 36.5436 99.2872 37.3085L100.168 35.4319C99.6612 34.9808 99.08 34.6217 98.4501 34.3707C97.752 34.088 97.0191 33.9 96.2711 33.8117V31.6137H94.2324V33.8333C93.4452 33.9218 92.6858 34.1767 92.0047 34.5813C91.3895 34.9455 90.8716 35.4532 90.4952 36.061C90.1361 36.6543 89.95 37.3361 89.9579 38.0295C89.9229 38.781 90.1406 39.5225 90.5763 40.1357C90.9774 40.6666 91.507 41.0867 92.1153 41.3562C92.8457 41.6681 93.6008 41.9183 94.3728 42.1042V46.2598C92.997 46.1561 91.6861 45.633 90.6168 44.7612L89.7366 46.6406C90.3345 47.1349 91.0144 47.5206 91.7455 47.7801C92.5466 48.0668 93.3835 48.2412 94.2325 48.2985V50.4776H96.2711V48.258C97.4035 48.1343 98.4653 47.6474 99.298 46.8701C99.6647 46.5184 99.9544 46.0944 100.149 45.625C100.343 45.1555 100.438 44.6508 100.427 44.1429C100.461 43.4154 100.25 42.6975 99.8273 42.1042V42.1042ZM94.3729 39.7469C93.8763 39.5963 93.4145 39.3484 93.0146 39.0178C92.8561 38.8768 92.7308 38.7025 92.6478 38.5073C92.5647 38.3122 92.5258 38.101 92.534 37.8891C92.5193 37.4082 92.696 36.941 93.0254 36.5903C93.3906 36.2223 93.8617 35.9778 94.3729 35.8909V39.7469ZM97.4106 45.493C97.0661 45.8463 96.6176 46.08 96.1307 46.1599V42.5848C96.5961 42.7097 97.0315 42.9274 97.4106 43.2248C97.5543 43.3475 97.6686 43.5011 97.7447 43.6741C97.8209 43.847 97.8572 44.035 97.8507 44.2239C97.8695 44.6873 97.7123 45.1407 97.4106 45.493V45.493Z" fill="#BA2530"/>
<path d="M50.3721 73.1148C49.9547 73.1142 49.5491 72.9758 49.2184 72.7211C48.8876 72.4665 48.6501 72.1098 48.5427 71.7065L47.5247 67.8532C47.3972 67.3689 47.4671 66.8538 47.7189 66.4209C47.9708 65.9881 48.384 65.6727 48.8681 65.5442L80.9849 57.0574C81.4695 56.9309 81.9845 57.0016 82.4172 57.2538C82.8499 57.5061 83.1651 57.9195 83.2938 58.4036L84.1563 61.6681L83.9947 61.6806C75.7577 62.3211 67.8766 65.3075 61.2836 70.2866L61.2368 70.3093L50.8516 73.0526C50.6951 73.0939 50.534 73.1148 50.3721 73.1148V73.1148Z" fill="#FEC65E"/>
<path d="M45.0528 92.1478C41.2853 91.5912 37.6821 90.2288 34.4889 88.1536C32.9068 87.1262 31.4423 85.9284 30.1215 84.5816C28.8179 83.2519 27.5707 81.7406 26.925 79.9698C26.3038 78.3315 26.3358 76.5171 27.0145 74.9017C27.6839 73.2962 28.9626 72.0216 30.5703 71.3575C32.1877 70.7125 34.1417 70.6435 35.7158 71.3499C36.4658 71.6786 37.1149 72.2011 37.5963 72.8636C37.8201 73.169 37.9858 73.513 38.0851 73.8783C38.1773 74.2094 38.1857 74.5583 38.1095 74.8934C38.0172 75.228 37.8544 75.539 37.6321 75.8055C37.4098 76.072 37.1331 76.2879 36.8204 76.4387C36.1325 76.7917 35.387 77.019 34.6192 77.1101C33.8469 77.2154 32.7375 77.3112 32.1166 76.6913C31.9888 76.5686 31.8883 76.4204 31.8216 76.2563C31.7749 76.1307 31.7589 75.9957 31.775 75.8626C31.766 75.9213 31.8125 75.7351 31.8098 75.7425C31.8 75.77 31.7575 75.8371 31.8179 75.734C31.8368 75.7001 31.8578 75.6673 31.8809 75.636C31.8604 75.6626 31.8153 75.7068 31.8958 75.6309C31.9623 75.5581 32.0478 75.5053 32.1427 75.4785C32.18 75.4676 32.2179 75.4589 32.2554 75.4487C32.3507 75.4226 32.1605 75.4501 32.2579 75.447C32.2955 75.4458 32.3336 75.4467 32.3711 75.445C32.4667 75.4407 32.2768 75.4189 32.3684 75.442C32.4039 75.4509 32.4392 75.4596 32.4742 75.4707C32.5504 75.4947 32.4203 75.4148 32.4719 75.4746C32.5324 75.5446 32.4084 75.4064 32.4771 75.4743C32.5114 75.5079 32.5436 75.5434 32.5737 75.5807C32.6929 75.6984 32.8537 75.7644 33.0213 75.7644C33.1888 75.7644 33.3496 75.6984 33.4689 75.5807C33.584 75.4602 33.6483 75.2999 33.6483 75.1332C33.6483 74.9664 33.584 74.8061 33.4689 74.6856C32.8447 73.9119 31.6119 74.1031 30.9805 74.757C30.1753 75.5909 30.4942 76.9126 31.2774 77.6403C32.1641 78.4641 33.4199 78.5213 34.5605 78.3832C35.5244 78.2908 36.4637 78.0254 37.3334 77.5996C38.1975 77.175 38.8733 76.4448 39.23 75.5506C39.3911 75.0733 39.4489 74.5673 39.3997 74.066C39.3506 73.5647 39.1955 73.0796 38.9448 72.6427C37.9378 70.7495 35.8526 69.7789 33.7915 69.6108C32.7304 69.5277 31.6633 69.6558 30.652 69.9878C29.6407 70.3198 28.7053 70.849 27.8999 71.5449C26.3476 72.9425 25.3917 74.8831 25.2299 76.9656C25.05 79.1248 25.8877 81.2216 27.109 82.964C28.3877 84.7345 29.9135 86.3124 31.6399 87.6498C35.015 90.3444 38.974 92.2116 43.2001 93.1018C43.7028 93.2057 44.2082 93.2945 44.7163 93.3685C44.8779 93.4077 45.0484 93.3838 45.1931 93.3016C45.3377 93.2195 45.4457 93.0853 45.4948 92.9264C45.5382 92.7646 45.5162 92.5922 45.4335 92.4465C45.3507 92.3008 45.214 92.1935 45.0528 92.1478L45.0528 92.1478Z" fill="#2F2E41"/>
<path d="M105.372 64.6388C99.8524 64.5609 94.35 64.701 88.8649 65.0591C86.9901 65.1815 85.3679 65.8441 85.3679 66.9579C85.3679 67.8891 86.9772 68.98 88.8649 68.8567C94.3472 68.4987 99.8496 68.3586 105.372 68.4364C109.875 68.5 109.872 64.7023 105.372 64.6388Z" fill="#CCCCCC"/>
<path d="M97.2138 68.2484C96.6173 68.2484 82.604 68.2261 82.604 66.2904C82.604 64.3549 96.6173 64.3326 97.2138 64.3326C97.8104 64.3326 111.824 64.3549 111.824 66.2904C111.824 68.2261 97.8104 68.2484 97.2138 68.2484ZM83.152 66.2904C83.5354 66.8773 88.6865 67.7083 97.2138 67.7083C105.741 67.7083 110.892 66.8773 111.276 66.2904C110.892 65.7037 105.741 64.8727 97.2138 64.8727C88.6865 64.8727 83.5354 65.7037 83.152 66.2904V66.2904Z" fill="#2F2E41"/>
<path d="M141.674 119.134C144.776 119.048 148.637 118.941 151.611 116.768C152.497 116.094 153.225 115.235 153.744 114.251C154.262 113.267 154.559 112.181 154.614 111.07C154.675 109.354 154.055 107.856 152.869 106.853C151.315 105.541 149.047 105.233 146.602 105.951L149.135 87.4416L147.276 87.1868L144.298 108.947L145.851 108.235C147.651 107.409 150.122 106.989 151.657 108.287C152.034 108.626 152.328 109.047 152.516 109.519C152.703 109.99 152.78 110.498 152.739 111.004C152.693 111.831 152.47 112.638 152.085 113.371C151.699 114.105 151.16 114.746 150.504 115.252C148.19 116.943 145.112 117.161 141.622 117.259L141.674 119.134Z" fill="#BA2530"/>
<path d="M136.533 89.0379H126.426V90.9146H136.533V89.0379Z" fill="#BA2530"/>
<path d="M54.9459 81.7464C54.4959 81.7449 54.0613 81.5833 53.7196 81.2906C53.378 80.9978 53.1519 80.5929 53.0816 80.1485L52.4646 76.2112C52.3876 75.716 52.5101 75.2104 52.8054 74.8055C53.1006 74.4005 53.5444 74.1292 54.0395 74.0511L86.8559 68.9092C87.351 68.8321 87.8566 68.9547 88.2615 69.2499C88.6664 69.5451 88.9377 69.9889 89.0158 70.484L89.6327 74.4214C89.7098 74.9166 89.5873 75.4222 89.2921 75.8271C88.9968 76.2321 88.553 76.5034 88.058 76.5815L55.2416 81.7233C55.1437 81.7386 55.0449 81.7463 54.9459 81.7464Z" fill="#FEC65E"/>
<path d="M41.3647 35.6039C48.9704 35.6039 55.1359 29.4383 55.1359 21.8327C55.1359 14.2271 48.9704 8.06149 41.3647 8.06149C33.7591 8.06149 27.5935 14.2271 27.5935 21.8327C27.5935 29.4383 33.7591 35.6039 41.3647 35.6039Z" fill="#BA2530"/>
<path d="M49.1618 25.3959C49.6019 25.242 50.004 24.9956 50.3409 24.6733C50.5639 24.4435 50.7339 24.1678 50.8391 23.8654C50.9442 23.563 50.982 23.2413 50.9498 22.9227C50.931 22.6957 50.8601 22.4761 50.7424 22.281C50.6247 22.086 50.4635 21.9208 50.2714 21.7983C49.7731 21.4918 49.1145 21.5034 48.4496 21.8116L48.3729 16.436L47.8329 16.4437L47.9231 22.7633L48.3342 22.4937C48.8108 22.1816 49.4957 21.9553 49.9885 22.2584C50.1104 22.3386 50.2121 22.4459 50.2857 22.5718C50.3594 22.6978 50.403 22.839 50.4132 22.9846C50.4359 23.2219 50.4073 23.4613 50.3292 23.6865C50.2511 23.9118 50.1253 24.1175 49.9606 24.2898C49.3752 24.8707 48.5087 25.0653 47.5198 25.2433L47.6155 25.7747C48.1412 25.6949 48.6587 25.5681 49.1618 25.3959V25.3959Z" fill="#FEC65E"/>
<path d="M53.9337 16.0587L51.0579 16.4942L51.1387 17.0281L54.0145 16.5926L53.9337 16.0587Z" fill="#FEC65E"/>
<path d="M44.8563 17.4331L41.9805 17.8687L42.0613 18.4025L44.9371 17.967L44.8563 17.4331Z" fill="#FEC65E"/>
<path d="M50.4654 81.5056C49.9701 81.5046 49.4869 81.3527 49.0801 81.0703C48.6732 80.7879 48.362 80.3883 48.1879 79.9246L38.693 54.4968C37.5325 51.3782 37.6564 47.9266 39.0376 44.8993C40.4188 41.872 42.9444 39.5162 46.0604 38.3487L53.7808 35.4659C54.0793 35.3537 54.3971 35.3016 54.7159 35.3127C55.0346 35.3237 55.348 35.3977 55.638 35.5304C55.9274 35.6597 56.188 35.8453 56.4048 36.0764C56.6216 36.3076 56.7901 36.5796 56.9005 36.8767L74.4889 70.0852C74.6031 70.3847 74.657 70.7038 74.6474 71.0241C74.6378 71.3445 74.5649 71.6597 74.433 71.9518C74.301 72.2439 74.1127 72.507 73.8787 72.726C73.6447 72.945 73.3697 73.1155 73.0695 73.2278L51.3147 81.3512C51.0431 81.4531 50.7554 81.5054 50.4654 81.5056Z" fill="#FEC65E"/>
<path d="M51.4385 36.3405L68.8898 59.6775L57.0813 36.5854C56.9837 36.316 56.8341 36.0684 56.6409 35.8568C56.4476 35.6452 56.2146 35.4738 55.9551 35.3523C55.6956 35.2307 55.4147 35.1615 55.1285 35.1486C54.8422 35.1357 54.5562 35.1793 54.2868 35.2769L51.4385 36.3405Z" fill="#E6E6E6"/>
<path d="M79.0706 54.0635L47.9112 52.0564C47.42 52.0248 46.9399 51.8967 46.4983 51.6795C46.0566 51.4623 45.6621 51.1603 45.3371 50.7906C45.0122 50.421 44.7633 49.9909 44.6046 49.5251C44.4458 49.0592 44.3804 48.5666 44.412 48.0755C44.4437 47.5843 44.5717 47.1042 44.7889 46.6626C45.0061 46.2209 45.3081 45.8264 45.6778 45.5014C46.0475 45.1765 46.4775 44.9276 46.9434 44.7688C47.4093 44.6101 47.9018 44.5447 48.393 44.5763L79.5524 46.5833C79.7825 46.5981 80.0073 46.6581 80.2142 46.7598C80.421 46.8615 80.6058 47.0029 80.7579 47.176C80.9101 47.3491 81.0267 47.5505 81.101 47.7687C81.1754 47.9869 81.206 48.2176 81.1912 48.4476L80.9351 52.4248C80.9051 52.8893 80.6919 53.323 80.3422 53.6303C79.9926 53.9376 79.5352 54.0934 79.0706 54.0635Z" fill="#BA2530"/>
<path d="M70.7443 55.3502C70.7032 55.3502 70.6619 55.3489 70.6206 55.3463H70.6205L45.0341 53.6982C44.7864 53.6823 44.5442 53.6177 44.3215 53.5082C44.0987 53.3987 43.8997 53.2463 43.7358 53.0599C43.572 52.8735 43.4464 52.6566 43.3664 52.4216C43.2863 52.1867 43.2533 51.9382 43.2693 51.6905L43.7068 44.8972C43.7228 44.6495 43.7874 44.4074 43.8969 44.1846C44.0065 43.9619 44.1588 43.7629 44.3453 43.599C44.5317 43.4352 44.7486 43.3096 44.9836 43.2296C45.2186 43.1496 45.467 43.1166 45.7147 43.1326L71.3011 44.7805C71.8011 44.8133 72.2677 45.0431 72.5986 45.4194C72.9294 45.7958 73.0974 46.2881 73.0658 46.7882L72.6283 53.5816C72.6042 53.9456 72.4756 54.2949 72.2578 54.5876C72.0401 54.8803 71.7425 55.104 71.4008 55.2317C71.1908 55.3102 70.9685 55.3504 70.7443 55.3502V55.3502Z" fill="#FEC65E"/>
<path d="M41.2069 12.6751C43.0185 11.1169 45.5064 12.5108 47.584 12.2668C49.5717 12.0333 51.1412 10.2504 51.5421 8.3562C52.0099 6.14633 50.8629 3.93235 49.1722 2.55453C47.3206 1.04548 44.8648 0.612272 42.5376 0.891457C39.8704 1.21144 37.4312 2.45472 35.2424 3.95853C33.1297 5.36512 31.1869 7.01144 29.4526 8.86464C27.8997 10.5797 26.584 12.6241 26.1638 14.932C25.782 17.0294 26.0736 19.3537 27.3135 21.1304C27.9709 22.0411 28.852 22.767 29.8717 23.2381C30.9349 23.7601 32.069 24.1334 33.0991 24.7237C34.6565 25.6162 36.1702 27.4668 35.6823 29.3926C35.5777 29.8133 35.3713 30.2019 35.0813 30.524C34.7328 30.9109 34.1041 30.3997 34.4536 30.0118C35.0673 29.3305 35.0431 28.4219 34.716 27.6085C34.3271 26.6919 33.6384 25.9346 32.7628 25.4606C31.6846 24.8442 30.4942 24.4637 29.3891 23.9022C28.3314 23.3893 27.4132 22.6284 26.7128 21.6843C25.3902 19.8462 24.9946 17.4541 25.2945 15.2412C25.6191 12.8465 26.8495 10.6705 28.3919 8.84692C30.0704 6.8624 32.1322 5.18255 34.2385 3.67344C36.4987 2.05414 38.9957 0.685145 41.7587 0.19C44.1539 -0.239214 46.7501 0.0250369 48.8445 1.33029C50.7996 2.54866 52.2987 4.6445 52.4478 6.9864C52.5014 8.05196 52.27 9.11253 51.7775 10.059C51.2851 11.0054 50.5493 11.8036 49.646 12.3712C48.7191 12.9259 47.6414 13.1756 46.565 13.085C45.4143 13.0113 44.2625 12.659 43.1044 12.7568C42.5803 12.7886 42.0809 12.9904 41.6819 13.3315C41.2861 13.672 40.8143 13.0127 41.2069 12.6751V12.6751Z" fill="#FEC65E"/>
<path d="M199.679 161.252H0.32156C0.236451 161.251 0.154913 161.217 0.0948191 161.157C0.0347248 161.097 0.000976562 161.015 0.000976562 160.93C0.000976562 160.845 0.0347248 160.763 0.0948191 160.703C0.154913 160.643 0.236451 160.609 0.32156 160.609H199.679C199.764 160.609 199.846 160.642 199.906 160.703C199.966 160.763 200 160.845 200 160.93C200 161.015 199.966 161.097 199.906 161.157C199.846 161.218 199.764 161.252 199.679 161.252V161.252Z" fill="#2F2E41"/>
</g>
<defs>
<clipPath id="clip0_447_70">
<rect width="200" height="161.252" fill="white"/>
</clipPath>
</defs>
</svg>
