<svg width="212" height="159" viewBox="0 0 212 159" fill="none" xmlns="http://www.w3.org/2000/svg">
<g clip-path="url(#clip0_447_96)">
<path d="M81.4592 93.2918H39.3233L38.8766 80.3365C38.8572 79.7749 38.9598 79.2158 39.1773 78.6976C39.3948 78.1795 39.7219 77.7146 40.1362 77.335C40.5506 76.9554 41.0422 76.6701 41.5774 76.4987C42.1125 76.3273 42.6785 76.2739 43.2363 76.3422L67.7566 79.3447H67.7596C71.3948 79.3545 74.8779 80.8048 77.4458 83.3779C80.0136 85.951 81.4569 89.4371 81.4592 93.0723V93.2918Z" fill="#BA2530"/>
<path d="M62.679 47.3373H33.2912C32.9003 47.3372 32.5133 47.4141 32.1522 47.5636C31.7911 47.7131 31.463 47.9323 31.1866 48.2087C30.9102 48.4851 30.691 48.8132 30.5415 49.1743C30.392 49.5354 30.3151 49.9224 30.3152 50.3133V79.7011C30.3151 80.0919 30.392 80.4789 30.5415 80.84C30.691 81.2012 30.9102 81.5293 31.1866 81.8056C31.463 82.082 31.7911 82.3012 32.1522 82.4507C32.5133 82.6002 32.9003 82.6772 33.2912 82.677H62.679C63.0698 82.6772 63.4569 82.6003 63.818 82.4507C64.1791 82.3012 64.5072 82.082 64.7836 81.8056C65.0599 81.5293 65.2791 81.2012 65.4286 80.8401C65.5782 80.479 65.6551 80.0919 65.655 79.7011V50.3133C65.6551 49.9224 65.5782 49.5354 65.4286 49.1743C65.2791 48.8132 65.0599 48.4851 64.7836 48.2087C64.5072 47.9323 64.1791 47.7131 63.818 47.5636C63.4569 47.4141 63.0698 47.3372 62.679 47.3373V47.3373Z" fill="#CCCCCC"/>
<path d="M56.0604 69.3124L42.1852 72.0144C41.3621 72.1737 40.5095 72.0001 39.8143 71.5315C39.1192 71.063 38.6383 70.3378 38.4771 69.5151L37.4105 64.0381C37.2512 63.215 37.4248 62.3624 37.8934 61.6672C38.3619 60.9721 39.0871 60.4911 39.9098 60.33L53.785 57.628C54.6081 57.4686 55.4607 57.6423 56.1559 58.1108C56.851 58.5794 57.332 59.3046 57.4931 60.1272L58.5597 65.6043C58.719 66.4274 58.5454 67.28 58.0768 67.9751C57.6083 68.6703 56.8831 69.1512 56.0604 69.3124Z" fill="#FEC65E"/>
<path d="M53.2843 62.8417L42.6953 64.9038C42.5016 64.9415 42.3009 64.9008 42.1373 64.7905C41.9736 64.6802 41.8605 64.5094 41.8228 64.3158C41.7851 64.1221 41.8259 63.9213 41.9361 63.7577C42.0464 63.5941 42.2172 63.481 42.4109 63.4433L52.9999 61.3812C53.1936 61.3435 53.3943 61.3842 53.5579 61.4945C53.7216 61.6048 53.8347 61.7756 53.8724 61.9693C53.9101 62.1629 53.8693 62.3637 53.7591 62.5273C53.6488 62.6909 53.478 62.804 53.2843 62.8417V62.8417Z" fill="white"/>
<path d="M51.2263 65.8955L45.7493 66.962C45.5556 66.9998 45.3548 66.959 45.1912 66.8487C45.0276 66.7384 44.9145 66.5677 44.8768 66.374C44.839 66.1803 44.8798 65.9796 44.9901 65.8159C45.1004 65.6523 45.2711 65.5392 45.4648 65.5015L50.9419 64.4349C51.0378 64.4162 51.1364 64.4166 51.2322 64.4361C51.3279 64.4555 51.4189 64.4936 51.4999 64.5482C51.581 64.6028 51.6504 64.6729 51.7044 64.7543C51.7583 64.8358 51.7957 64.9271 51.8144 65.023C51.8331 65.1189 51.8327 65.2175 51.8132 65.3133C51.7938 65.409 51.7557 65.5 51.7011 65.581C51.6465 65.662 51.5764 65.7315 51.495 65.7854C51.4135 65.8394 51.3222 65.8768 51.2263 65.8955Z" fill="white"/>
<path d="M65.6549 50.3133V54.2192H30.3152V50.3133C30.3151 49.9224 30.392 49.5354 30.5415 49.1743C30.691 48.8132 30.9102 48.4851 31.1866 48.2087C31.463 47.9323 31.7911 47.7131 32.1522 47.5636C32.5133 47.4141 32.9003 47.3372 33.2912 47.3373H62.679C63.0698 47.3372 63.4568 47.4141 63.818 47.5636C64.1791 47.7131 64.5072 47.9323 64.7835 48.2087C65.0599 48.4851 65.2791 48.8132 65.4286 49.1743C65.5782 49.5354 65.655 49.9224 65.6549 50.3133Z" fill="#B3B3B3"/>
<path d="M136.225 55.4424C136.021 54.7838 135.675 54.178 135.212 53.6676C134.748 53.1572 134.178 52.7546 133.542 52.4882C132.907 52.2218 132.22 52.098 131.531 52.1257C130.842 52.1534 130.168 52.3317 129.555 52.6482L89.1245 38.1424L87.3438 48.2426L127.646 59.3254C128.246 60.3192 129.189 61.0583 130.298 61.4028C131.406 61.7473 132.603 61.6732 133.66 61.1946C134.718 60.716 135.563 59.866 136.036 58.8059C136.508 57.7457 136.576 56.549 136.225 55.4424V55.4424Z" fill="#FFB8B8"/>
<path opacity="0.2" d="M136.225 55.4424C136.021 54.7838 135.675 54.178 135.212 53.6676C134.748 53.1572 134.178 52.7546 133.542 52.4882C132.907 52.2218 132.22 52.098 131.531 52.1257C130.842 52.1534 130.168 52.3317 129.555 52.6482L89.1245 38.1424L87.3438 48.2426L127.646 59.3254C128.246 60.3192 129.189 61.0583 130.298 61.4028C131.406 61.7473 132.603 61.6732 133.66 61.1946C134.718 60.716 135.563 59.866 136.036 58.8059C136.508 57.7457 136.576 56.549 136.225 55.4424V55.4424Z" fill="black"/>
<path d="M96.3006 39.9828L92.4828 49.9571C92.3741 50.2409 92.2056 50.4979 91.9887 50.7107C91.7717 50.9235 91.5115 51.0871 91.2256 51.1902C90.9398 51.2933 90.6351 51.3337 90.3323 51.3084C90.0294 51.2832 89.7356 51.193 89.4708 51.044L80.1919 45.8215C78.7432 45.2574 77.5773 44.1418 76.9498 42.7194C76.3223 41.2971 76.2844 39.6839 76.8444 38.2336C77.4045 36.7833 78.5167 35.6143 79.9373 34.9827C81.3579 34.3512 82.9709 34.3087 84.4228 34.8646L94.7843 37.1626C95.0809 37.2285 95.3599 37.3576 95.6021 37.541C95.8444 37.7244 96.0443 37.9579 96.1882 38.2255C96.3321 38.4932 96.4167 38.7887 96.4361 39.0919C96.4555 39.3952 96.4093 39.699 96.3006 39.9828V39.9828Z" fill="#BA2530"/>
<path d="M139.408 64.6779L124.92 71.263L126.822 78.4236C130.495 92.2511 131.47 106.657 129.693 120.853V120.853L140.286 123.065L149.066 100.676L145.993 75.214L139.408 64.6779Z" fill="#BA2530"/>
<path d="M167.833 97.8227C158.315 97.8227 150.558 104.742 150.181 113.407H185.485C185.108 104.742 177.352 97.8227 167.833 97.8227Z" fill="#FEC65E"/>
<path d="M160.423 99.316C159.928 60.2015 137.652 63.7999 137.652 63.7999C137.652 63.7999 138.068 75.9749 138.268 76.3536C152.464 103.212 129.036 134.699 99.2147 128.906C98.6524 128.797 98.1123 128.686 97.5941 128.574C93.8156 127.785 90.4794 125.586 88.2642 122.425C86.049 119.264 85.1212 115.378 85.6694 111.557C88.607 87.9667 73.996 88.3841 73.996 88.3841H52.6313L41.5362 78.3986C41.1446 78.0461 40.6725 77.795 40.1614 77.6671C39.6503 77.5392 39.1156 77.5385 38.6041 77.665C38.0926 77.7915 37.62 78.0414 37.2274 78.3928C36.8348 78.7442 36.5343 79.1865 36.3521 79.6809L34.9247 83.5551C34.9247 83.5551 13.8526 85.7501 15.6086 106.383H22.1233C22.1076 106.97 22.1311 107.556 22.1936 108.139L70.8137 107.744C73.6636 107.721 76.1793 110.03 76.191 112.88C76.1939 113.574 76.0569 114.261 75.788 114.901C75.5192 115.541 75.1241 116.12 74.6263 116.603C74.1286 117.086 73.5385 117.465 72.8913 117.715C72.2441 117.965 71.553 118.082 70.8596 118.059L63.021 117.797C60.6065 128.553 66.533 135.796 73.0632 140.351C79.2114 144.577 86.507 146.818 93.9675 146.772H115.262C142.92 146.772 147.749 123.504 147.749 123.504C162.236 117.358 160.423 99.316 160.423 99.316Z" fill="#FEC65E"/>
<path d="M166.516 159.503C180.154 159.503 191.21 148.447 191.21 134.809C191.21 121.171 180.154 110.115 166.516 110.115C152.878 110.115 141.822 121.171 141.822 134.809C141.822 148.447 152.878 159.503 166.516 159.503Z" fill="#FEC65E"/>
<path d="M166.516 140.861C169.858 140.861 172.568 138.151 172.568 134.809C172.568 131.466 169.858 128.756 166.516 128.756C163.173 128.756 160.463 131.466 160.463 134.809C160.463 138.151 163.173 140.861 166.516 140.861Z" fill="white"/>
<path d="M41.8393 159.503C57.5382 159.503 70.2647 146.776 70.2647 131.077C70.2647 115.378 57.5382 102.652 41.8393 102.652C26.1403 102.652 13.4138 115.378 13.4138 131.077C13.4138 146.776 26.1403 159.503 41.8393 159.503Z" fill="#FEC65E"/>
<path d="M41.8391 138.044C45.6869 138.044 48.8061 134.925 48.8061 131.077C48.8061 127.229 45.6869 124.11 41.8391 124.11C37.9913 124.11 34.8721 127.229 34.8721 131.077C34.8721 134.925 37.9913 138.044 41.8391 138.044Z" fill="white"/>
<path d="M124.962 73.2087L119.749 59.0511C119.477 58.3132 119.354 57.529 119.385 56.7434C119.417 55.9577 119.602 55.186 119.932 54.4721C120.262 53.7583 120.729 53.1164 121.307 52.5831C121.884 52.0497 122.561 51.6354 123.299 51.3638L138.243 45.8625C139.541 45.3844 140.921 45.1668 142.303 45.2219C143.686 45.277 145.044 45.6039 146.3 46.1839C147.556 46.7639 148.685 47.5856 149.624 48.6021C150.562 49.6186 151.291 50.81 151.769 52.1082C152.201 53.2735 152.421 54.5062 152.42 55.7487C152.414 57.3263 152.057 58.8828 151.375 60.3051C150.692 61.7274 149.701 62.9798 148.474 63.9712C147.588 64.6823 146.591 65.2442 145.524 65.6346L124.962 73.2087Z" fill="#FEC65E"/>
<path d="M152.2 55.7486C152.199 57.294 151.851 58.8195 151.183 60.2129C150.514 61.6062 149.542 62.832 148.337 63.7999C146.488 63.3123 144.768 62.4281 143.296 61.2086C141.824 59.989 140.635 58.4636 139.812 56.7381C138.989 55.0127 138.552 53.1287 138.53 51.2172C138.509 49.3057 138.904 47.4124 139.689 45.6691C141.194 45.3416 142.754 45.3556 144.254 45.7099C145.754 46.0642 147.155 46.7499 148.355 47.7166C149.555 48.6834 150.523 49.9066 151.189 51.2965C151.854 52.6863 152.2 54.2076 152.2 55.7486V55.7486Z" fill="#BA2530"/>
<path d="M19.3399 109.237C22.7343 109.237 25.4859 105.895 25.4859 101.774C25.4859 97.652 22.7343 94.3106 19.3399 94.3106C15.9455 94.3106 13.1938 97.652 13.1938 101.774C13.1938 105.895 15.9455 109.237 19.3399 109.237Z" fill="#BA2530"/>
<path d="M100.583 128.191H105.965L108.526 114.232L100.582 114.233L100.583 128.191Z" fill="#FFB8B8"/>
<path d="M99.2097 126.434L109.809 126.434H109.809C110.696 126.434 111.575 126.608 112.394 126.948C113.214 127.287 113.958 127.785 114.586 128.412C115.213 129.039 115.71 129.784 116.05 130.603C116.389 131.423 116.564 132.301 116.564 133.188V133.408L99.2101 133.408L99.2097 126.434Z" fill="#2F2E41"/>
<path d="M106.83 122.462C106.767 122.462 106.704 122.459 106.641 122.453L99.1926 121.911C98.8914 121.883 98.6006 121.786 98.3427 121.628C98.0848 121.47 97.8666 121.254 97.7051 120.999C97.5435 120.743 97.4428 120.454 97.4107 120.153C97.3787 119.852 97.4162 119.548 97.5203 119.264L107.489 96.8681C107.56 96.6685 107.589 96.4562 107.574 96.2448C107.559 96.0333 107.501 95.8272 107.402 95.6395C107.304 95.4495 107.167 95.2824 107 95.1493C106.832 95.0161 106.639 94.9199 106.432 94.8669C101.744 93.6417 89.7179 90.3791 79.3073 86.5618C74.847 84.9263 72.0379 82.5628 70.9579 79.5369C69.5342 75.5478 71.6404 71.9097 71.7308 71.7571L71.8015 71.6375L81.5977 72.5279L92.2177 73.4312L115.491 85.9111C117.441 86.9656 118.922 88.7161 119.64 90.8138C120.357 92.9115 120.258 95.2025 119.362 97.2304L108.632 121.291C108.477 121.64 108.224 121.936 107.904 122.143C107.585 122.351 107.211 122.462 106.83 122.462Z" fill="#2F2E41"/>
<path d="M83.3012 28.2197C89.2561 28.2197 94.0835 23.3922 94.0835 17.4373C94.0835 11.4824 89.2561 6.65492 83.3012 6.65492C77.3462 6.65492 72.5188 11.4824 72.5188 17.4373C72.5188 23.3922 77.3462 28.2197 83.3012 28.2197Z" fill="#FFB8B8"/>
<path d="M97.5097 129.508H102.892L105.453 115.549L97.5088 115.55L97.5097 129.508Z" fill="#FFB8B8"/>
<path d="M96.1365 127.751L106.736 127.751H106.736C107.623 127.751 108.502 127.925 109.321 128.265C110.141 128.604 110.885 129.102 111.512 129.729C112.14 130.356 112.637 131.101 112.977 131.92C113.316 132.74 113.491 133.618 113.491 134.505V134.725L96.1368 134.725L96.1365 127.751Z" fill="#2F2E41"/>
<path d="M103.757 123.779C103.694 123.779 103.631 123.776 103.568 123.77L96.1196 123.228C95.8184 123.2 95.5276 123.103 95.2697 122.945C95.0118 122.787 94.7936 122.572 94.6321 122.316C94.4705 122.06 94.3698 121.771 94.3378 121.47C94.3057 121.169 94.3432 120.865 94.4473 120.581L104.416 98.1852C104.487 97.9855 104.516 97.7733 104.501 97.5618C104.486 97.3503 104.428 97.1442 104.329 96.9565C104.231 96.7665 104.094 96.5994 103.927 96.4663C103.759 96.3331 103.566 96.2369 103.359 96.1839C98.6714 94.9587 86.6449 91.6962 76.2343 87.8789C71.774 86.2433 68.9649 83.8798 67.8849 80.854C66.4612 76.8648 68.5675 73.2267 68.6578 73.0741L68.7285 72.9545L78.5247 73.8449L89.1447 74.7482L112.418 87.2281C114.368 88.2827 115.849 90.0331 116.567 92.1308C117.284 94.2285 117.185 96.5195 116.289 98.5474L105.559 122.608C105.404 122.957 105.151 123.253 104.831 123.46C104.512 123.668 104.138 123.779 103.757 123.779Z" fill="#2F2E41"/>
<path d="M86.6263 34.3337L75.2122 30.3827C75.2122 30.3827 68.0468 35.8878 71.489 49.5446C73.2861 56.592 72.7626 64.031 69.9964 70.7573C69.6633 71.5895 69.2794 72.4005 68.8467 73.1855C68.8467 73.1855 81.5778 88.5506 93.4309 77.1366L88.8213 54.9669C88.8213 54.9669 96.0649 40.2603 86.6263 34.3337Z" fill="#BA2530"/>
<path d="M84.6395 28.5864C83.1049 26.2894 81.8938 23.1043 83.5834 20.9188C85.2512 18.7614 88.5407 19.0793 91.095 18.1247C94.6527 16.7951 96.716 12.6155 96.0725 8.87239C95.429 5.1293 92.4243 2.02639 88.8448 0.756777C85.2652 -0.512834 81.2288 -0.0999269 77.7234 1.36211C73.4083 3.16189 69.7068 6.64345 68.1546 11.0537C66.6024 15.4639 67.4321 20.7592 70.6522 24.149C74.1044 27.7832 79.5225 28.7517 84.5347 28.6929" fill="#2F2E41"/>
<path d="M74.61 8.99252C72.6763 10.5667 69.726 9.86753 67.6502 8.48597C65.5745 7.1044 63.8901 5.13713 61.6442 4.05393C57.6847 2.14429 52.8976 3.41376 49.0441 5.52903C45.1905 7.6443 41.7745 10.5666 37.7041 12.2265C33.6336 13.8865 28.4394 13.9685 25.3572 10.8342C24.5987 13.0318 24.5367 15.4098 25.1796 17.644C25.8226 19.8781 27.1391 21.8594 28.9497 23.3176C30.7603 24.7759 32.9767 25.64 35.2965 25.792C37.6163 25.9441 39.9266 25.3767 41.912 24.1674C46.372 21.4506 48.8356 15.7544 53.838 14.255C56.6061 13.4252 59.5785 14.0935 62.3762 14.8173C65.1739 15.5412 68.0911 16.3233 70.9144 15.7071C73.7378 15.0909 76.3787 12.5537 76.0195 9.68627L74.61 8.99252Z" fill="#2F2E41"/>
<path d="M135.689 55.0032C135.405 54.3749 134.987 53.8163 134.464 53.367C133.941 52.9177 133.326 52.5885 132.662 52.4026C131.998 52.2167 131.301 52.1786 130.621 52.291C129.941 52.4035 129.294 52.6637 128.725 53.0534L86.8134 43.6468L86.2925 53.8896L127.654 59.9151C128.372 60.8273 129.4 61.4443 130.542 61.6494C131.685 61.8545 132.863 61.6334 133.853 61.028C134.843 60.4225 135.577 59.4748 135.916 58.3644C136.254 57.254 136.173 56.0581 135.689 55.0032V55.0032Z" fill="#FFB8B8"/>
<path d="M94.1618 44.5877L91.6037 54.9568C91.5309 55.2519 91.3954 55.5278 91.2064 55.7657C91.0174 56.0036 90.7793 56.198 90.5084 56.3356C90.2375 56.4733 89.9401 56.5509 89.6364 56.5632C89.3328 56.5755 89.0301 56.5223 88.7489 56.4071L78.8966 52.3693C77.3884 51.9892 76.0925 51.0262 75.2935 49.6918C74.4944 48.3573 74.2574 46.7604 74.6343 45.2514C75.0113 43.7424 75.9715 42.4445 77.3043 41.6426C78.637 40.8408 80.2334 40.6003 81.7432 40.9741L92.309 41.9761C92.6115 42.0049 92.9043 42.0986 93.1674 42.2507C93.4304 42.4028 93.6576 42.6099 93.8334 42.8577C94.0092 43.1055 94.1296 43.3884 94.1862 43.6869C94.2429 43.9854 94.2346 44.2927 94.1618 44.5877V44.5877Z" fill="#BA2530"/>
<path d="M130.847 63.1414C132.544 63.1414 133.92 61.7656 133.92 60.0684C133.92 58.3712 132.544 56.9954 130.847 56.9954C129.15 56.9954 127.774 58.3712 127.774 60.0684C127.774 61.7656 129.15 63.1414 130.847 63.1414Z" fill="#BA2530"/>
</g>
<defs>
<clipPath id="clip0_447_96">
<rect width="212" height="159" fill="white"/>
</clipPath>
</defs>
</svg>
